# AST/ASF file generated using VICON BodyLanguage
# -----------------------------------------------
:version 1.10
:name VICON
:units
  mass 1.0
  length 0.45
  angle deg
:documentation
   .ast/.asf automatically generated from VICON data using
   VICON BodyBuilder and BodyLanguage model FoxedUp or BRILLIANT.MOD
:root
   order TX TY TZ RX RY RZ
   axis XYZ
   position 0 0 0  
   orientation 0 0 0 
:bonedata
  begin
     id 1 
     name lhipjoint
     direction 0.440178 -0.822639 0.359871 
     length 2.53113 
     axis 0 0 0  XYZ
  end
  begin
     id 2 
     name lfemur
     direction 0.34202 -0.939693 0  
     length 7.88132  
     axis 0 0 20  XYZ
    dof rx ry rz
    limits (-160.0 20.0)
           (-70.0 70.0)
           (-60.0 70.0)
  end
  begin
     id 3 
     name ltibia
     direction 0.34202 -0.939693 0   
     length 8.43783   
     axis 0 0 20   XYZ
    dof rx
    limits (-10.0 170.0)
  end
  begin
     id 4 
     name lfoot
     direction 0.0886351 -0.243523 0.965837   
     length 2.63414   
     axis -90 7.62852e-016 20   XYZ
    dof rx rz
    limits (-45.0 90.0)
           (-70.0 20.0)
  end
  begin
     id 5 
     name ltoes
     direction 1.53703e-011 -4.21717e-011 1   
     length 1.31427   
     axis -90 7.62852e-016 20   XYZ
    dof rx
    limits (-90.0 20.0)
  end
  begin
     id 6 
     name rhipjoint
     direction -0.399779 -0.839773 0.367367   
     length 2.47948  
     axis 0 0 0  XYZ 
  end
  begin
     id 7 
     name rfemur
     direction -0.34202 -0.939693 0   
     length 7.74806   
     axis 0 0 -20   XYZ
    dof rx ry rz
    limits (-160.0 20.0)
           (-70.0 70.0)
           (-70.0 60.0)
  end
  begin
     id 8 
     name rtibia
     direction -0.34202 -0.939693 0   
     length 8.74432   
     axis 0 0 -20   XYZ
    dof rx
    limits (-10.0 170.0)
 end
 begin
     id 9 
     name rfoot
     direction -0.108514 -0.298139 0.948334   
     length 2.66102  
     axis -90 -7.62852e-016 -20   XYZ
    dof rx rz
    limits (-45.0 90.0)
           (-20.0 70.0)
  end
  begin
     id 10 
     name rtoes
     direction -1.53392e-011 -4.22077e-011 1   
     length 1.31983   
     axis -90 -7.62852e-016 -20   XYZ
    dof rx
    limits (-90.0 20.0)
  end
  begin
     id 11 
     name lowerback
     direction 0.0113257 0.999866 0.0118602   
     length 2.58694   
     axis 0 0 0   XYZ
    dof rx ry rz
    limits (-20.0 45.0)
           (-30.0 30.0)
           (-30.0 30.0)
  end
  begin
     id 12 
     name upperback
     direction -0.0164747 0.995193 -0.0965375   
     length 2.52368   
     axis 0 0 0   XYZ
    dof rx ry rz
    limits (-20.0 45.0)
           (-30.0 30.0)
           (-30.0 30.0)
  end
  begin
     id 13 
     name thorax
     direction -0.0194301 0.99433 -0.104552   
     length 2.56099   
     axis 0 0 0   XYZ
    dof rx ry rz
    limits (-20.0 45.0)
           (-30.0 30.0)
           (-30.0 30.0)
  end
  begin
     id 14 
     name lowerneck
     direction 0.0148543 0.995587 -0.092657   
     length 1.71582   
     axis 0 0 0   XYZ
    dof rx ry rz
    limits (-20.0 45.0)
           (-30.0 30.0)
           (-30.0 30.0)
  end
  begin
     id 15 
     name upperneck
     direction -0.0135467 0.993656 -0.111639   
     length 1.68937   
     axis 0 0 0   XYZ
    dof rx ry rz
    limits (-20.0 45.0)
           (-30.0 30.0)
           (-30.0 30.0)
  end
  begin
     id 16
     name head
     direction -0.00615349 0.999547 -0.029448  
     length 1.7462  
     axis 0 0 0   XYZ
    dof rx ry rz
    limits (-20.0 45.0)
           (-30.0 30.0)
           (-30.0 30.0)
  end
  begin
     id 17 
     name lclavicle
     direction 0.988267 0.149885 0.0293713  
     length 4.47222  
     axis 0 0 0   XYZ
    dof ry rz
    limits (-20.0 10.0)
           (0.0 20.0)
  end
  begin
     id 18 
     name lhumerus
     direction 1 -4.48986e-011 -1.14833e-027   
     length 5.37148   
     axis 180 -30 -90   XYZ
    dof rx ry rz
    limits (-60.0 90.0)
           (-90.0 90.0)
           (-90.0 90.0)
  end
  begin
     id 19
     name lradius
     direction 0.999998 0.00170963 -0.000987055   
     length 3.94212   
     axis 180 -30 -90   XYZ
    dof rx
    limits (-10.0 170.0)
  end
  begin
     id 20
     name lwrist
     direction 0.999998 7.53149e-005 -0.00194706   
     length 1.97106   
     axis 4.65056e-015 90 90   XYZ
    dof ry
    limits (-180.0 0.0)
 end
  begin
     id 21 
     name lhand
     direction 1 -4.48973e-011 -1.31746e-026   
     length 1.17917   
     axis 8.4065e-015 90 90   XYZ
    dof rx rz
    limits (-90.0 90.0)
           (-45.0 45.0)
  end
  begin
     id 22 
     name lfingers
     direction 1 -4.49107e-011 -2.63492e-026   
     length 0.950679   
     axis 1.6813e-014 90 90   XYZ
    dof rx
    limits (0.0 90.0)
  end
  begin
     id 23
     name lthumb
     direction 0.707107 -6.35048e-011 0.707107   
     length 1.36499   
     axis -90 45 2.85299e-015   XYZ
    dof rx rz
    limits (-45.0 45.0)
           (-45.0 45.0)
  end
  begin
     id 24 
     name rclavicle
     direction -0.996699 0.0642895 -0.0495725   
     length 4.62611  
     axis 0 0 0   XYZ 
    dof ry rz
    limits (-10.0 20.0)
           (-20.0 0.0)
  end
  begin
     id 25 
     name rhumerus
     direction -1 -4.48919e-011 -2.41059e-027  
     length 5.4981   
     axis 180 30 90   XYZ
    dof rx ry rz
    limits (-90.0 60.0)
           (-90.0 90.0)
           (-90.0 90.0)
  end
  begin
     id 26 
     name rradius
     direction -0.999999 0.00118101 -0.000681858   
     length 3.48381   
     axis 180 30 90   XYZ
    dof rx
    limits (-10.0 170.0)
  end
  begin
     id 27 
     name rwrist
     direction -0.999999 0.000321823 -0.00132288   
     length 1.7419   
     axis 4.65056e-015 -90 -90   XYZ
    dof ry
    limits (-180.0 0.0)
  end
  begin
     id 28
     name rhand
     direction -1 -4.49022e-011 -1.31746e-026   
     length 1.34932   
     axis 8.4065e-015 -90 -90   XYZ
    dof rx rz
    limits (-90.0 90.0)
           (-45.0 45.0)
  end
  begin
     id 29
     name rfingers
     direction -1 -4.49178e-011 -2.63492e-026   
     length 1.08785   
     axis 1.6813e-014 -90 -90   XYZ
    dof rx
    limits (0.0 90.0)
  end
  begin
     id 30
     name rthumb
     direction -0.707107 -6.34713e-011 0.707107   
     length 1.56195   
     axis -90 -45 -2.85299e-015   XYZ
    dof rx rz
    limits (-45.0 45.0)
           (-45.0 45.0)
  end
:hierarchy
  begin
    root lhipjoint rhipjoint lowerback
    lhipjoint lfemur
    lfemur ltibia
    ltibia lfoot
    lfoot ltoes
    rhipjoint rfemur
    rfemur rtibia
    rtibia rfoot
    rfoot rtoes
    lowerback upperback
    upperback thorax
    thorax lowerneck lclavicle rclavicle
    lowerneck upperneck
    upperneck head
    lclavicle lhumerus
    lhumerus lradius
    lradius lwrist
    lwrist lhand lthumb
    lhand lfingers
    rclavicle rhumerus
    rhumerus rradius
    rradius rwrist
    rwrist rhand rthumb
    rhand rfingers
  end

#!OML:ASF X:\für Bonn\!DataBase\2005_08_10_Bjorn_Final\c3d\bjorn.ASF
:FULLY-SPECIFIED
:DEGREES
1
root 1.66737 19.1249 2.23342 -174.848 0.317688 -178.583
lowerback -6.12122 2.27938 5.81501
upperback 4.9086 2.6843 -0.771784
thorax 8.97085 1.7585 -3.70037
lowerneck -19.1245 -3.77573 0.250812
upperneck 9.02949 -5.03846 -0.926914
head 5.78447 -2.53166 -0.85506
rclavicle -2.43511e-015 1.0138e-014
rhumerus 71.9289 0.869423 -78.5088
rradius 9.58042
rwrist 45.782
rhand -9.37836 9.98967
rfingers 7.12502
rthumb 16.5822 -19.3219
lclavicle -2.43511e-015 1.0138e-014
lhumerus 77.6315 -10.0237 61.9249
lradius 10.5376
lwrist -39.2689
lhand -9.78031 -4.12128
lfingers 7.12502
lthumb 16.1952 25.2222
rfemur -13.6926 -17.4547 19.5293
rtibia 30.5025
rfoot -16.44 24.9754
rtoes -8.36612
lfemur -14.013 6.41591 -15.711
ltibia 32.3508
lfoot -19.9381 -5.27994
ltoes -11.664
2
root 1.66895 19.1209 2.25056 -175.044 0.380074 -178.612
lowerback -5.74595 2.27873 5.81165
upperback 4.92268 2.71613 -0.803551
thorax 8.76994 1.77368 -3.74012
lowerneck -19.145 -3.76503 0.259811
upperneck 9.06836 -5.03048 -0.889879
head 5.80102 -2.5238 -0.844933
rclavicle 8.24025e-015 -4.32357e-015
rhumerus 71.7993 0.855959 -78.6759
rradius 9.50092
rwrist 45.7971
rhand -9.3325 10.0244
rfingers 7.12502
rthumb 16.6263 -19.2835
lclavicle 8.24025e-015 -4.32357e-015
lhumerus 77.6287 -10.296 61.373
lradius 10.41
lwrist -38.8298
lhand -9.80774 -4.12789
lfingers 7.12502
lthumb 16.1688 25.2177
rfemur -13.5637 -16.6904 19.5226
rtibia 30.5856
rfoot -16.8905 24.0777
rtoes -9.59104
lfemur -13.8642 5.93232 -15.7631
ltibia 32.4116
lfoot -19.9079 -4.70283
ltoes -12.0284
3
root 1.66932 19.1141 2.26905 -175.271 0.415725 -178.657
lowerback -5.318 2.27325 5.80908
upperback 4.95085 2.74726 -0.846702
thorax 8.55435 1.78993 -3.79432
lowerneck -19.1898 -3.76714 0.299476
upperneck 9.11084 -5.04416 -0.879636
head 5.82089 -2.52761 -0.850929
rclavicle -2.341e-014 -1.2921e-014
rhumerus 71.6588 0.814123 -78.8419
rradius 9.44123
rwrist 45.77
rhand -9.33938 10.0493
rfingers 7.12502
rthumb 16.6197 -19.2591
lclavicle -2.341e-014 -1.2921e-014
lhumerus 77.4606 -10.5413 61.2611
lradius 10.4913
lwrist -38.7177
lhand -9.64102 -4.19647
lfingers 7.12502
lthumb 16.3293 25.136
rfemur -13.4193 -15.9825 19.4863
rtibia 30.6935
rfoot -17.2883 23.2319
rtoes -10.5945
lfemur -13.7035 5.46104 -15.8355
ltibia 32.4989
lfoot -19.8588 -4.16806
ltoes -12.1966
4
root 1.67049 19.1074 2.28891 -175.534 0.457156 -178.685
lowerback -4.81232 2.25133 5.79599
upperback 4.97813 2.76107 -0.859596
thorax 8.28802 1.79537 -3.81577
lowerneck -19.1942 -3.76408 0.264059
upperneck 9.11674 -5.03762 -0.829746
head 5.82581 -2.52148 -0.829025
rclavicle 5.99708e-014 -1.40516e-014
rhumerus 71.5096 0.820962 -78.9854
rradius 9.4123
rwrist 45.7321
rhand -9.3068 10.0634
rfingers 7.12502
rthumb 16.6511 -19.2424
lclavicle 5.99708e-014 -1.40516e-014
lhumerus 77.0456 -10.6859 61.8509
lradius 10.7086
lwrist -39.2314
lhand -9.40594 -4.2654
lfingers 7.12502
lthumb 16.5556 25.0484
rfemur -13.2549 -15.3248 19.4693
rtibia 30.831
rfoot -17.7831 22.393
rtoes -11.9303
lfemur -13.5287 5.13544 -15.8845
ltibia 32.6174
lfoot -19.8113 -3.69523
ltoes -12.6917
5
root 1.67046 19.0991 2.31034 -175.798 0.499594 -178.713
lowerback -4.26253 2.23456 5.82354
upperback 4.99423 2.78411 -0.910997
thorax 7.99024 1.80812 -3.90198
lowerneck -19.2356 -3.74833 0.331361
upperneck 9.17476 -5.03525 -0.809877
head 5.84985 -2.51535 -0.834817
rclavicle 6.86739e-015 6.71519e-015
rhumerus 71.3188 0.788027 -79.1779
rradius 9.44529
rwrist 45.6996
rhand -9.23288 10.0687
rfingers 7.12502
rthumb 16.7223 -19.2311
lclavicle 6.86739e-015 6.71519e-015
lhumerus 76.7163 -10.8944 62.1392
lradius 10.8844
lwrist -39.4357
lhand -9.29592 -4.30876
lfingers 7.12502
lthumb 16.6616 24.9961
rfemur -13.1139 -14.6936 19.4508
rtibia 31.0117
rfoot -18.2316 21.6008
rtoes -12.9107
lfemur -13.3822 4.85544 -15.9426
ltibia 32.768
lfoot -19.7409 -3.24534
ltoes -13.2932
6
root 1.66965 19.0898 2.33262 -176.071 0.533075 -178.758
lowerback -3.7 2.20622 5.81821
upperback 5.02853 2.7947 -0.93361
thorax 7.70021 1.81325 -3.94096
lowerneck -19.2303 -3.74514 0.28798
upperneck 9.16371 -5.0287 -0.74549
head 5.84839 -2.50853 -0.806575
rclavicle -2.33419e-014 1.75851e-014
rhumerus 71.1443 0.792851 -79.3219
rradius 9.55262
rwrist 45.6706
rhand -9.08626 10.0566
rfingers 7.12502
rthumb 16.8634 -19.2312
lclavicle -2.33419e-014 1.75851e-014
lhumerus 76.4511 -11.0715 62.3546
lradius 11.0384
lwrist -39.4254
lhand -9.23039 -4.37008
lfingers 7.12502
lthumb 16.7246 24.9295
rfemur -13.0026 -14.1233 19.4161
rtibia 31.247
rfoot -18.7179 20.8091
rtoes -14.1037
lfemur -13.2546 4.61054 -16.0255
ltibia 32.9564
lfoot -19.7053 -2.81163
ltoes -13.9039
7
root 1.66897 19.0795 2.35661 -176.343 0.576427 -178.802
lowerback -3.11169 2.18893 5.81278
upperback 5.06305 2.82272 -0.959693
thorax 7.39841 1.82714 -3.98293
lowerneck -19.2349 -3.73495 0.324985
upperneck 9.15252 -5.02308 -0.757091
head 5.84434 -2.50559 -0.815438
rclavicle -3.95908e-014 1.57902e-014
rhumerus 70.9234 0.776638 -79.4635
rradius 9.73599
rwrist 45.6846
rhand -8.96299 10.0391
rfingers 7.12502
rthumb 16.9821 -19.2385
lclavicle -3.95908e-014 1.57902e-014
lhumerus 76.2865 -11.2812 62.4475
lradius 11.1151
lwrist -39.2922
lhand -9.28553 -4.3616
lfingers 7.12502
lthumb 16.6716 24.9425
rfemur -12.9304 -13.5736 19.3807
rtibia 31.5409
rfoot -19.1846 20.1086
rtoes -14.9874
lfemur -13.1561 4.41678 -16.1063
ltibia 33.1797
lfoot -19.619 -2.40926
ltoes -14.323
8
root 1.66807 19.0663 2.38127 -176.615 0.620569 -178.863
lowerback -2.51739 2.16206 5.80343
upperback 5.12313 2.84192 -1.00419
thorax 7.1212 1.83959 -4.04316
lowerneck -19.284 -3.71815 0.36524
upperneck 9.13316 -5.01581 -0.726676
head 5.84581 -2.49853 -0.812124
rclavicle 3.5393e-014 -9.36773e-015
rhumerus 70.7184 0.767827 -79.6346
rradius 10.0148
rwrist 45.7026
rhand -8.77248 10.0045
rfingers 7.12502
rthumb 17.1654 -19.2573
lclavicle 3.5393e-014 -9.36773e-015
lhumerus 76.1471 -11.4849 62.4072
lradius 11.2383
lwrist -38.9674
lhand -9.41238 -4.3496
lfingers 7.12502
lthumb 16.5494 24.9647
rfemur -12.9062 -13.155 19.3253
rtibia 31.8975
rfoot -19.5873 19.5006
rtoes -15.7261
lfemur -13.0777 4.24789 -16.2121
ltibia 33.4416
lfoot -19.5468 -2.01033
ltoes -14.6758
